<?xml version="1.0" encoding="utf-8" standalone="no"?>
<!DOCTYPE svg PUBLIC "-//W3C//DTD SVG 1.1//EN"
  "http://www.w3.org/Graphics/SVG/1.1/DTD/svg11.dtd">
<!-- Created with matplotlib (http://matplotlib.org/) -->
<svg height="396pt" version="1.1" viewBox="0 0 576 396" width="576pt" xmlns="http://www.w3.org/2000/svg" xmlns:xlink="http://www.w3.org/1999/xlink">
 <defs>
  <style type="text/css">
*{stroke-linecap:butt;stroke-linejoin:round;}
  </style>
 </defs>
 <g id="figure_1">
  <g id="patch_1">
   <path d="
M0 396
L576 396
L576 0
L0 0
z
" style="fill:#ffffff;"/>
  </g>
  <g id="axes_1">
   <g id="patch_2">
    <path d="
M72 356.4
L518.4 356.4
L518.4 39.6
L72 39.6
z
" style="fill:#eaeaf2;"/>
   </g>
   <g id="matplotlib.axis_1">
    <g id="xtick_1">
     <g id="line2d_1">
      <defs>
       <path d="
M0 0
L0 0" id="m219da94a98" style="stroke:#262626;"/>
      </defs>
      <g>
       <use style="fill:#262626;stroke:#262626;" x="72.0" xlink:href="#m219da94a98" y="356.4"/>
      </g>
     </g>
     <g id="line2d_2">
      <g>
       <use style="fill:#262626;stroke:#262626;" x="72.0" xlink:href="#m219da94a98" y="39.6"/>
      </g>
     </g>
     <g id="text_1">
      <!-- 0 -->
      <defs>
       <path d="
M4.15625 35.2969
Q4.15625 48 6.76562 55.7344
Q9.375 63.4844 14.5156 67.6719
Q19.6719 71.875 27.4844 71.875
Q33.25 71.875 37.5938 69.5469
Q41.9375 67.2344 44.7656 62.8594
Q47.6094 58.5 49.2188 52.2188
Q50.8281 45.9531 50.8281 35.2969
Q50.8281 22.7031 48.2344 14.9688
Q45.6562 7.23438 40.5 3
Q35.3594 -1.21875 27.4844 -1.21875
Q17.1406 -1.21875 11.2344 6.20312
Q4.15625 15.1406 4.15625 35.2969
M13.1875 35.2969
Q13.1875 17.6719 17.3125 11.8281
Q21.4375 6 27.4844 6
Q33.5469 6 37.6719 11.8594
Q41.7969 17.7188 41.7969 35.2969
Q41.7969 52.9844 37.6719 58.7812
Q33.5469 64.5938 27.3906 64.5938
Q21.3438 64.5938 17.7188 59.4688
Q13.1875 52.9375 13.1875 35.2969" id="ArialMT-30"/>
      </defs>
      <g style="fill:#262626;" transform="translate(69.66640625 370.5578125)scale(0.1 -0.1)">
       <use xlink:href="#ArialMT-30"/>
      </g>
     </g>
    </g>
    <g id="xtick_2">
     <g id="line2d_3">
      <g>
       <use style="fill:#262626;stroke:#262626;" x="146.4" xlink:href="#m219da94a98" y="356.4"/>
      </g>
     </g>
     <g id="line2d_4">
      <g>
       <use style="fill:#262626;stroke:#262626;" x="146.4" xlink:href="#m219da94a98" y="39.6"/>
      </g>
     </g>
     <g id="text_2">
      <!-- 100 -->
      <defs>
       <path d="
M37.25 0
L28.4688 0
L28.4688 56
Q25.2969 52.9844 20.1406 49.9531
Q14.9844 46.9219 10.8906 45.4062
L10.8906 53.9062
Q18.2656 57.375 23.7812 62.2969
Q29.2969 67.2344 31.5938 71.875
L37.25 71.875
z
" id="ArialMT-31"/>
      </defs>
      <g style="fill:#262626;" transform="translate(138.8421875 370.5578125)scale(0.1 -0.1)">
       <use xlink:href="#ArialMT-31"/>
       <use x="55.615234375" xlink:href="#ArialMT-30"/>
       <use x="111.23046875" xlink:href="#ArialMT-30"/>
      </g>
     </g>
    </g>
    <g id="xtick_3">
     <g id="line2d_5">
      <g>
       <use style="fill:#262626;stroke:#262626;" x="220.8" xlink:href="#m219da94a98" y="356.4"/>
      </g>
     </g>
     <g id="line2d_6">
      <g>
       <use style="fill:#262626;stroke:#262626;" x="220.8" xlink:href="#m219da94a98" y="39.6"/>
      </g>
     </g>
     <g id="text_3">
      <!-- 200 -->
      <defs>
       <path d="
M50.3438 8.45312
L50.3438 0
L3.03125 0
Q2.9375 3.17188 4.04688 6.10938
Q5.85938 10.9375 9.82812 15.625
Q13.8125 20.3125 21.3438 26.4688
Q33.0156 36.0312 37.1094 41.625
Q41.2188 47.2188 41.2188 52.2031
Q41.2188 57.4219 37.4688 61
Q33.7344 64.5938 27.7344 64.5938
Q21.3906 64.5938 17.5781 60.7812
Q13.7656 56.9844 13.7188 50.25
L4.6875 51.1719
Q5.60938 61.2812 11.6562 66.5781
Q17.7188 71.875 27.9375 71.875
Q38.2344 71.875 44.2344 66.1562
Q50.25 60.4531 50.25 52
Q50.25 47.7031 48.4844 43.5469
Q46.7344 39.4062 42.6562 34.8125
Q38.5781 30.2188 29.1094 22.2188
Q21.1875 15.5781 18.9375 13.2031
Q16.7031 10.8438 15.2344 8.45312
z
" id="ArialMT-32"/>
      </defs>
      <g style="fill:#262626;" transform="translate(212.84453125 370.5578125)scale(0.1 -0.1)">
       <use xlink:href="#ArialMT-32"/>
       <use x="55.615234375" xlink:href="#ArialMT-30"/>
       <use x="111.23046875" xlink:href="#ArialMT-30"/>
      </g>
     </g>
    </g>
    <g id="xtick_4">
     <g id="line2d_7">
      <g>
       <use style="fill:#262626;stroke:#262626;" x="295.2" xlink:href="#m219da94a98" y="356.4"/>
      </g>
     </g>
     <g id="line2d_8">
      <g>
       <use style="fill:#262626;stroke:#262626;" x="295.2" xlink:href="#m219da94a98" y="39.6"/>
      </g>
     </g>
     <g id="text_4">
      <!-- 300 -->
      <defs>
       <path d="
M4.20312 18.8906
L12.9844 20.0625
Q14.5 12.5938 18.1406 9.29688
Q21.7812 6 27 6
Q33.2031 6 37.4688 10.2969
Q41.75 14.5938 41.75 20.9531
Q41.75 27 37.7969 30.9219
Q33.8438 34.8594 27.7344 34.8594
Q25.25 34.8594 21.5312 33.8906
L22.5156 41.6094
Q23.3906 41.5 23.9219 41.5
Q29.5469 41.5 34.0312 44.4219
Q38.5312 47.3594 38.5312 53.4688
Q38.5312 58.2969 35.25 61.4688
Q31.9844 64.6562 26.8125 64.6562
Q21.6875 64.6562 18.2656 61.4219
Q14.8438 58.2031 13.875 51.7656
L5.07812 53.3281
Q6.6875 62.1562 12.3906 67.0156
Q18.1094 71.875 26.6094 71.875
Q32.4688 71.875 37.3906 69.3594
Q42.3281 66.8438 44.9375 62.5
Q47.5625 58.1562 47.5625 53.2656
Q47.5625 48.6406 45.0625 44.8281
Q42.5781 41.0156 37.7031 38.7656
Q44.0469 37.3125 47.5625 32.6875
Q51.0781 28.0781 51.0781 21.1406
Q51.0781 11.7656 44.2344 5.25
Q37.4062 -1.26562 26.9531 -1.26562
Q17.5312 -1.26562 11.2969 4.34375
Q5.07812 9.96875 4.20312 18.8906" id="ArialMT-33"/>
      </defs>
      <g style="fill:#262626;" transform="translate(287.3078125 370.5578125)scale(0.1 -0.1)">
       <use xlink:href="#ArialMT-33"/>
       <use x="55.615234375" xlink:href="#ArialMT-30"/>
       <use x="111.23046875" xlink:href="#ArialMT-30"/>
      </g>
     </g>
    </g>
    <g id="xtick_5">
     <g id="line2d_9">
      <g>
       <use style="fill:#262626;stroke:#262626;" x="369.6" xlink:href="#m219da94a98" y="356.4"/>
      </g>
     </g>
     <g id="line2d_10">
      <g>
       <use style="fill:#262626;stroke:#262626;" x="369.6" xlink:href="#m219da94a98" y="39.6"/>
      </g>
     </g>
     <g id="text_5">
      <!-- 400 -->
      <defs>
       <path d="
M32.3281 0
L32.3281 17.1406
L1.26562 17.1406
L1.26562 25.2031
L33.9375 71.5781
L41.1094 71.5781
L41.1094 25.2031
L50.7812 25.2031
L50.7812 17.1406
L41.1094 17.1406
L41.1094 0
z

M32.3281 25.2031
L32.3281 57.4688
L9.90625 25.2031
z
" id="ArialMT-34"/>
      </defs>
      <g style="fill:#262626;" transform="translate(361.5609375 370.5578125)scale(0.1 -0.1)">
       <use xlink:href="#ArialMT-34"/>
       <use x="55.615234375" xlink:href="#ArialMT-30"/>
       <use x="111.23046875" xlink:href="#ArialMT-30"/>
      </g>
     </g>
    </g>
    <g id="xtick_6">
     <g id="line2d_11">
      <g>
       <use style="fill:#262626;stroke:#262626;" x="444.0" xlink:href="#m219da94a98" y="356.4"/>
      </g>
     </g>
     <g id="line2d_12">
      <g>
       <use style="fill:#262626;stroke:#262626;" x="444.0" xlink:href="#m219da94a98" y="39.6"/>
      </g>
     </g>
     <g id="text_6">
      <!-- 500 -->
      <defs>
       <path d="
M4.15625 18.75
L13.375 19.5312
Q14.4062 12.7969 18.1406 9.39062
Q21.875 6 27.1562 6
Q33.5 6 37.8906 10.7812
Q42.2812 15.5781 42.2812 23.4844
Q42.2812 31 38.0625 35.3438
Q33.8438 39.7031 27 39.7031
Q22.75 39.7031 19.3281 37.7656
Q15.9219 35.8438 13.9688 32.7656
L5.71875 33.8438
L12.6406 70.6094
L48.25 70.6094
L48.25 62.2031
L19.6719 62.2031
L15.8281 42.9688
Q22.2656 47.4688 29.3438 47.4688
Q38.7188 47.4688 45.1562 40.9688
Q51.6094 34.4688 51.6094 24.2656
Q51.6094 14.5469 45.9531 7.46875
Q39.0625 -1.21875 27.1562 -1.21875
Q17.3906 -1.21875 11.2031 4.25
Q5.03125 9.71875 4.15625 18.75" id="ArialMT-35"/>
      </defs>
      <g style="fill:#262626;" transform="translate(436.10546875 370.5578125)scale(0.1 -0.1)">
       <use xlink:href="#ArialMT-35"/>
       <use x="55.615234375" xlink:href="#ArialMT-30"/>
       <use x="111.23046875" xlink:href="#ArialMT-30"/>
      </g>
     </g>
    </g>
    <g id="xtick_7">
     <g id="line2d_13">
      <g>
       <use style="fill:#262626;stroke:#262626;" x="518.4" xlink:href="#m219da94a98" y="356.4"/>
      </g>
     </g>
     <g id="line2d_14">
      <g>
       <use style="fill:#262626;stroke:#262626;" x="518.4" xlink:href="#m219da94a98" y="39.6"/>
      </g>
     </g>
     <g id="text_7">
      <!-- 600 -->
      <defs>
       <path d="
M49.75 54.0469
L41.0156 53.375
Q39.8438 58.5469 37.7031 60.8906
Q34.125 64.6562 28.9062 64.6562
Q24.7031 64.6562 21.5312 62.3125
Q17.3906 59.2812 14.9844 53.4688
Q12.5938 47.6562 12.5 36.9219
Q15.6719 41.75 20.2656 44.0938
Q24.8594 46.4375 29.8906 46.4375
Q38.6719 46.4375 44.8438 39.9688
Q51.0312 33.5 51.0312 23.25
Q51.0312 16.5 48.125 10.7188
Q45.2188 4.9375 40.1406 1.85938
Q35.0625 -1.21875 28.6094 -1.21875
Q17.625 -1.21875 10.6875 6.85938
Q3.76562 14.9375 3.76562 33.5
Q3.76562 54.25 11.4219 63.6719
Q18.1094 71.875 29.4375 71.875
Q37.8906 71.875 43.2812 67.1406
Q48.6875 62.4062 49.75 54.0469
M13.875 23.1875
Q13.875 18.6562 15.7969 14.5
Q17.7188 10.3594 21.1875 8.17188
Q24.6562 6 28.4688 6
Q34.0312 6 38.0312 10.4844
Q42.0469 14.9844 42.0469 22.7031
Q42.0469 30.125 38.0781 34.3906
Q34.125 38.6719 28.125 38.6719
Q22.1719 38.6719 18.0156 34.3906
Q13.875 30.125 13.875 23.1875" id="ArialMT-36"/>
      </defs>
      <g style="fill:#262626;" transform="translate(510.4859375 370.5578125)scale(0.1 -0.1)">
       <use xlink:href="#ArialMT-36"/>
       <use x="55.615234375" xlink:href="#ArialMT-30"/>
       <use x="111.23046875" xlink:href="#ArialMT-30"/>
      </g>
     </g>
    </g>
    <g id="text_8">
     <!-- t [ms] -->
     <defs>
      <path d="
M25.7812 7.85938
L27.0469 0.09375
Q23.3438 -0.6875 20.4062 -0.6875
Q15.625 -0.6875 12.9844 0.828125
Q10.3594 2.34375 9.28125 4.8125
Q8.20312 7.28125 8.20312 15.1875
L8.20312 45.0156
L1.76562 45.0156
L1.76562 51.8594
L8.20312 51.8594
L8.20312 64.7031
L16.9375 69.9688
L16.9375 51.8594
L25.7812 51.8594
L25.7812 45.0156
L16.9375 45.0156
L16.9375 14.7031
Q16.9375 10.9375 17.4062 9.85938
Q17.875 8.79688 18.9219 8.15625
Q19.9688 7.51562 21.9219 7.51562
Q23.3906 7.51562 25.7812 7.85938" id="ArialMT-74"/>
      <path d="
M3.07812 15.4844
L11.7656 16.8438
Q12.5 11.625 15.8438 8.84375
Q19.1875 6.0625 25.2031 6.0625
Q31.25 6.0625 34.1719 8.51562
Q37.1094 10.9844 37.1094 14.3125
Q37.1094 17.2812 34.5156 19
Q32.7188 20.1719 25.5312 21.9688
Q15.875 24.4219 12.1406 26.2031
Q8.40625 27.9844 6.46875 31.125
Q4.54688 34.2812 4.54688 38.0938
Q4.54688 41.5469 6.125 44.5
Q7.71875 47.4688 10.4531 49.4219
Q12.5 50.9219 16.0312 51.9688
Q19.5781 53.0312 23.6406 53.0312
Q29.7344 53.0312 34.3438 51.2656
Q38.9688 49.5156 41.1562 46.5
Q43.3594 43.5 44.1875 38.4844
L35.5938 37.3125
Q35.0156 41.3125 32.2031 43.5469
Q29.3906 45.7969 24.2656 45.7969
Q18.2188 45.7969 15.625 43.7969
Q13.0312 41.7969 13.0312 39.1094
Q13.0312 37.4062 14.1094 36.0312
Q15.1875 34.625 17.4844 33.6875
Q18.7969 33.2031 25.25 31.4531
Q34.5781 28.9531 38.25 27.3594
Q41.9375 25.7812 44.0312 22.75
Q46.1406 19.7344 46.1406 15.2344
Q46.1406 10.8438 43.5781 6.95312
Q41.0156 3.07812 36.1719 0.953125
Q31.3438 -1.17188 25.25 -1.17188
Q15.1406 -1.17188 9.84375 3.03125
Q4.54688 7.23438 3.07812 15.4844" id="ArialMT-73"/>
      <path d="
M6.59375 0
L6.59375 51.8594
L14.4531 51.8594
L14.4531 44.5781
Q16.8906 48.3906 20.9375 50.7031
Q25 53.0312 30.1719 53.0312
Q35.9375 53.0312 39.625 50.6406
Q43.3125 48.25 44.8281 43.9531
Q50.9844 53.0312 60.8438 53.0312
Q68.5625 53.0312 72.7031 48.75
Q76.8594 44.4844 76.8594 35.5938
L76.8594 0
L68.1094 0
L68.1094 32.6719
Q68.1094 37.9375 67.25 40.25
Q66.4062 42.5781 64.1562 43.9844
Q61.9219 45.4062 58.8906 45.4062
Q53.4219 45.4062 49.7969 41.7656
Q46.1875 38.1406 46.1875 30.125
L46.1875 0
L37.4062 0
L37.4062 33.6875
Q37.4062 39.5469 35.25 42.4688
Q33.1094 45.4062 28.2188 45.4062
Q24.5156 45.4062 21.3594 43.4531
Q18.2188 41.5 16.7969 37.7344
Q15.375 33.9844 15.375 26.9062
L15.375 0
z
" id="ArialMT-6d"/>
      <path d="
M6.78125 -19.875
L6.78125 71.5781
L26.1719 71.5781
L26.1719 64.3125
L15.5781 64.3125
L15.5781 -12.5938
L26.1719 -12.5938
L26.1719 -19.875
z
" id="ArialMT-5b"/>
      <path d="
M21.2969 -19.875
L1.90625 -19.875
L1.90625 -12.5938
L12.5 -12.5938
L12.5 64.3125
L1.90625 64.3125
L1.90625 71.5781
L21.2969 71.5781
z
" id="ArialMT-5d"/>
      <path id="ArialMT-20"/>
     </defs>
     <g style="fill:#262626;" transform="translate(282.1134375 385.41890625)scale(0.11 -0.11)">
      <use xlink:href="#ArialMT-74"/>
      <use x="27.783203125" xlink:href="#ArialMT-20"/>
      <use x="55.56640625" xlink:href="#ArialMT-5b"/>
      <use x="83.349609375" xlink:href="#ArialMT-6d"/>
      <use x="166.650390625" xlink:href="#ArialMT-73"/>
      <use x="216.650390625" xlink:href="#ArialMT-5d"/>
     </g>
    </g>
   </g>
   <g id="matplotlib.axis_2">
    <g id="ytick_1">
     <g id="line2d_15">
      <g>
       <use style="fill:#262626;stroke:#262626;" x="72.0" xlink:href="#m219da94a98" y="356.4"/>
      </g>
     </g>
     <g id="line2d_16">
      <g>
       <use style="fill:#262626;stroke:#262626;" x="518.4" xlink:href="#m219da94a98" y="356.4"/>
      </g>
     </g>
     <g id="text_9">
      <!-- −20 -->
      <defs>
       <path d="
M52.8281 31.2031
L5.5625 31.2031
L5.5625 39.4062
L52.8281 39.4062
z
" id="ArialMT-2212"/>
      </defs>
      <g style="fill:#262626;" transform="translate(49.071875 358.98515625)scale(0.1 -0.1)">
       <use xlink:href="#ArialMT-2212"/>
       <use x="58.3984375" xlink:href="#ArialMT-32"/>
       <use x="114.013671875" xlink:href="#ArialMT-30"/>
      </g>
     </g>
    </g>
    <g id="ytick_2">
     <g id="line2d_17">
      <g>
       <use style="fill:#262626;stroke:#262626;" x="72.0" xlink:href="#m219da94a98" y="311.142857143"/>
      </g>
     </g>
     <g id="line2d_18">
      <g>
       <use style="fill:#262626;stroke:#262626;" x="518.4" xlink:href="#m219da94a98" y="311.142857143"/>
      </g>
     </g>
     <g id="text_10">
      <!-- 0 -->
      <g style="fill:#262626;" transform="translate(60.3328125 313.728013393)scale(0.1 -0.1)">
       <use xlink:href="#ArialMT-30"/>
      </g>
     </g>
    </g>
    <g id="ytick_3">
     <g id="line2d_19">
      <g>
       <use style="fill:#262626;stroke:#262626;" x="72.0" xlink:href="#m219da94a98" y="265.885714286"/>
      </g>
     </g>
     <g id="line2d_20">
      <g>
       <use style="fill:#262626;stroke:#262626;" x="518.4" xlink:href="#m219da94a98" y="265.885714286"/>
      </g>
     </g>
     <g id="text_11">
      <!-- 20 -->
      <g style="fill:#262626;" transform="translate(54.65 268.470870536)scale(0.1 -0.1)">
       <use xlink:href="#ArialMT-32"/>
       <use x="55.615234375" xlink:href="#ArialMT-30"/>
      </g>
     </g>
    </g>
    <g id="ytick_4">
     <g id="line2d_21">
      <g>
       <use style="fill:#262626;stroke:#262626;" x="72.0" xlink:href="#m219da94a98" y="220.628571429"/>
      </g>
     </g>
     <g id="line2d_22">
      <g>
       <use style="fill:#262626;stroke:#262626;" x="518.4" xlink:href="#m219da94a98" y="220.628571429"/>
      </g>
     </g>
     <g id="text_12">
      <!-- 40 -->
      <g style="fill:#262626;" transform="translate(54.4828125 223.213727679)scale(0.1 -0.1)">
       <use xlink:href="#ArialMT-34"/>
       <use x="55.615234375" xlink:href="#ArialMT-30"/>
      </g>
     </g>
    </g>
    <g id="ytick_5">
     <g id="line2d_23">
      <g>
       <use style="fill:#262626;stroke:#262626;" x="72.0" xlink:href="#m219da94a98" y="175.371428571"/>
      </g>
     </g>
     <g id="line2d_24">
      <g>
       <use style="fill:#262626;stroke:#262626;" x="518.4" xlink:href="#m219da94a98" y="175.371428571"/>
      </g>
     </g>
     <g id="text_13">
      <!-- 60 -->
      <g style="fill:#262626;" transform="translate(54.7328125 177.956584821)scale(0.1 -0.1)">
       <use xlink:href="#ArialMT-36"/>
       <use x="55.615234375" xlink:href="#ArialMT-30"/>
      </g>
     </g>
    </g>
    <g id="ytick_6">
     <g id="line2d_25">
      <g>
       <use style="fill:#262626;stroke:#262626;" x="72.0" xlink:href="#m219da94a98" y="130.114285714"/>
      </g>
     </g>
     <g id="line2d_26">
      <g>
       <use style="fill:#262626;stroke:#262626;" x="518.4" xlink:href="#m219da94a98" y="130.114285714"/>
      </g>
     </g>
     <g id="text_14">
      <!-- 80 -->
      <defs>
       <path d="
M17.6719 38.8125
Q12.2031 40.8281 9.5625 44.5312
Q6.9375 48.25 6.9375 53.4219
Q6.9375 61.2344 12.5469 66.5469
Q18.1719 71.875 27.4844 71.875
Q36.8594 71.875 42.5781 66.4219
Q48.2969 60.9844 48.2969 53.1719
Q48.2969 48.1875 45.6719 44.5
Q43.0625 40.8281 37.75 38.8125
Q44.3438 36.6719 47.7812 31.875
Q51.2188 27.0938 51.2188 20.4531
Q51.2188 11.2812 44.7188 5.03125
Q38.2344 -1.21875 27.6406 -1.21875
Q17.0469 -1.21875 10.5469 5.04688
Q4.04688 11.3281 4.04688 20.7031
Q4.04688 27.6875 7.59375 32.3906
Q11.1406 37.1094 17.6719 38.8125
M15.9219 53.7188
Q15.9219 48.6406 19.1875 45.4062
Q22.4688 42.1875 27.6875 42.1875
Q32.7656 42.1875 36.0156 45.375
Q39.2656 48.5781 39.2656 53.2188
Q39.2656 58.0625 35.9062 61.3594
Q32.5625 64.6562 27.5938 64.6562
Q22.5625 64.6562 19.2344 61.4219
Q15.9219 58.2031 15.9219 53.7188
M13.0938 20.6562
Q13.0938 16.8906 14.875 13.375
Q16.6562 9.85938 20.1719 7.92188
Q23.6875 6 27.7344 6
Q34.0312 6 38.125 10.0469
Q42.2344 14.1094 42.2344 20.3594
Q42.2344 26.7031 38.0156 30.8594
Q33.7969 35.0156 27.4375 35.0156
Q21.2344 35.0156 17.1562 30.9062
Q13.0938 26.8125 13.0938 20.6562" id="ArialMT-38"/>
      </defs>
      <g style="fill:#262626;" transform="translate(54.7609375 132.699441964)scale(0.1 -0.1)">
       <use xlink:href="#ArialMT-38"/>
       <use x="55.615234375" xlink:href="#ArialMT-30"/>
      </g>
     </g>
    </g>
    <g id="ytick_7">
     <g id="line2d_27">
      <g>
       <use style="fill:#262626;stroke:#262626;" x="72.0" xlink:href="#m219da94a98" y="84.8571428571"/>
      </g>
     </g>
     <g id="line2d_28">
      <g>
       <use style="fill:#262626;stroke:#262626;" x="518.4" xlink:href="#m219da94a98" y="84.8571428571"/>
      </g>
     </g>
     <g id="text_15">
      <!-- 100 -->
      <g style="fill:#262626;" transform="translate(49.884375 87.4422991071)scale(0.1 -0.1)">
       <use xlink:href="#ArialMT-31"/>
       <use x="55.615234375" xlink:href="#ArialMT-30"/>
       <use x="111.23046875" xlink:href="#ArialMT-30"/>
      </g>
     </g>
    </g>
    <g id="ytick_8">
     <g id="line2d_29">
      <g>
       <use style="fill:#262626;stroke:#262626;" x="72.0" xlink:href="#m219da94a98" y="39.6"/>
      </g>
     </g>
     <g id="line2d_30">
      <g>
       <use style="fill:#262626;stroke:#262626;" x="518.4" xlink:href="#m219da94a98" y="39.6"/>
      </g>
     </g>
     <g id="text_16">
      <!-- 120 -->
      <g style="fill:#262626;" transform="translate(49.884375 42.18515625)scale(0.1 -0.1)">
       <use xlink:href="#ArialMT-31"/>
       <use x="55.615234375" xlink:href="#ArialMT-32"/>
       <use x="111.23046875" xlink:href="#ArialMT-30"/>
      </g>
     </g>
    </g>
    <g id="text_17">
     <!-- v [mv] -->
     <defs>
      <path d="
M21 0
L1.26562 51.8594
L10.5469 51.8594
L21.6875 20.7969
Q23.4844 15.7656 25 10.3594
Q26.1719 14.4531 28.2656 20.2188
L39.7969 51.8594
L48.8281 51.8594
L29.2031 0
z
" id="ArialMT-76"/>
     </defs>
     <g style="fill:#262626;" transform="translate(41.885625 212.30859375)rotate(-90.0)scale(0.11 -0.11)">
      <use xlink:href="#ArialMT-76"/>
      <use x="50.0" xlink:href="#ArialMT-20"/>
      <use x="77.783203125" xlink:href="#ArialMT-5b"/>
      <use x="105.56640625" xlink:href="#ArialMT-6d"/>
      <use x="188.8671875" xlink:href="#ArialMT-76"/>
      <use x="238.8671875" xlink:href="#ArialMT-5d"/>
     </g>
    </g>
   </g>
   <g id="line2d_31">
    <path clip-path="url(#p3d386a08f4)" d="
M72 311.143
L72.8184 309.892
L74.0088 308.415
L74.9016 307.633
L75.5712 307.301
L76.1664 307.23
L76.7616 307.395
L77.3568 307.793
L78.1752 308.644
L80.0352 310.703
L80.7792 311.15
L81.4488 311.306
L82.1928 311.246
L83.0856 310.942
L84.7224 310.093
L86.3592 309.334
L86.88 309.175
L87.5496 266.569
L87.6984 240.68
L87.8472 178.517
L88.0704 66.2756
L88.1448 66.0949
L88.2936 75.8331
L88.6656 123.836
L89.5584 241.881
L90.4512 332.405
L90.5256 332.462
L90.7488 331.788
L91.344 328.99
L92.088 324.412
L93.0552 316.971
L94.8408 301.129
L95.5104 293.591
L95.8824 287.159
L96.18 277.967
L96.4032 263.598
L96.6264 226.369
L96.9984 88.4228
L97.0728 88.8694
L97.296 113.595
L98.3376 256.141
L99.0072 330.676
L99.156 331.995
L99.3048 331.72
L99.7512 329.748
L100.495 325.399
L101.462 318.177
L103.174 303.282
L103.992 294.761
L104.438 287.626
L104.736 279.078
L104.959 266.232
L105.182 234.489
L105.406 145.055
L105.629 88.5315
L105.778 100.014
L107.638 331.461
L107.786 331.934
L108.01 331.203
L108.605 328.236
L109.423 322.913
L110.539 313.936
L112.25 298.355
L112.771 291.904
L113.143 284.498
L113.441 272.699
L113.664 251.676
L113.813 219.178
L114.185 88.5482
L114.259 91.0869
L114.482 118.155
L115.45 251.426
L116.194 331.238
L116.342 331.95
L116.491 331.563
L117.012 329.142
L117.756 324.61
L118.723 317.215
L120.509 301.492
L121.178 294.231
L121.625 286.74
L121.922 277.384
L122.146 262.632
L122.369 224.194
L122.741 88.9526
L122.815 90.0378
L123.038 115.645
L124.08 258.189
L124.75 330.965
L124.898 331.958
L125.047 331.623
L125.568 329.23
L126.312 324.724
L127.279 317.352
L129.065 301.65
L129.809 293.459
L130.181 287.111
L130.478 278.11
L130.702 264.207
L130.925 228.772
L131.371 89.2334
L131.446 94.505
L131.818 147.907
L132.562 247.55
L133.38 331.679
L133.454 331.953
L133.529 331.888
L133.826 330.772
L134.496 327.224
L135.314 321.625
L136.579 311.151
L138.067 297.291
L138.588 290.309
L138.886 283.828
L139.109 275.44
L139.332 258.249
L139.481 232.971
L139.704 141.786
L139.927 88.7104
L140.076 100.847
L141.862 330.209
L142.01 331.931
L142.085 331.92
L142.308 331.17
L142.978 327.764
L143.796 322.308
L144.986 312.587
L146.623 297.474
L147.144 290.592
L147.516 282.089
L147.739 272.242
L147.962 250.539
L148.111 216.768
L148.483 88.5168
L148.632 98.8647
L150.492 331.342
L150.641 331.943
L150.864 331.24
L151.459 328.286
L152.278 322.978
L153.394 314.012
L155.105 298.449
L155.626 292.041
L155.998 284.739
L156.295 273.229
L156.518 252.984
L156.667 221.952
L157.039 88.7124
L157.114 90.4918
L157.337 116.791
L158.304 250.375
L159.048 331.098
L159.197 331.956
L159.346 331.595
L159.866 329.19
L160.61 324.672
L161.578 317.289
L163.363 301.577
L164.107 293.354
L164.479 286.941
L164.777 277.78
L165 263.495
L165.223 226.713
L165.595 89.3713
L165.67 89.5715
L165.893 114.311
L166.934 257.125
L167.604 330.791
L167.753 331.957
L167.902 331.654
L168.348 329.661
L169.092 325.286
L170.059 318.038
L171.77 303.129
L172.589 294.562
L173.035 287.307
L173.333 278.488
L173.556 265.012
L173.779 231.082
L174.002 137.797
L174.226 88.9135
L174.374 101.795
L176.16 330.411
L176.309 331.944
L176.383 331.906
L176.681 330.812
L177.35 327.278
L178.169 321.693
L179.434 311.229
L180.922 297.39
L181.442 290.463
L181.74 284.08
L181.963 275.887
L182.186 259.278
L182.335 235.09
L182.558 146.513
L182.782 88.5615
L182.93 99.7645
L184.79 331.436
L184.939 331.933
L185.162 331.208
L185.758 328.243
L186.576 322.922
L187.692 313.946
L189.403 298.368
L189.924 291.924
L190.296 284.535
L190.594 272.782
L190.817 251.882
L190.966 219.619
L191.338 88.5696
L191.412 90.9939
L191.635 117.947
L192.602 251.268
L193.346 331.218
L193.495 331.951
L193.644 331.567
L194.165 329.149
L194.909 324.619
L195.876 317.225
L197.662 301.504
L198.331 294.248
L198.778 286.769
L199.075 277.443
L199.298 262.761
L199.522 224.571
L199.894 89.0049
L199.968 89.9651
L200.191 115.448
L201.233 258.033
L201.902 330.941
L202.051 331.958
L202.2 331.627
L202.721 329.237
L203.465 324.733
L204.432 317.363
L206.218 301.663
L206.962 293.477
L207.334 287.14
L207.631 278.166
L207.854 264.326
L208.078 229.116
L208.524 89.1814
L208.598 94.3794
L208.97 147.7
L209.714 247.398
L210.533 331.669
L210.607 331.952
L210.682 331.891
L210.979 330.777
L211.649 327.231
L212.467 321.635
L213.732 311.162
L215.22 297.305
L215.741 290.332
L216.038 283.865
L216.262 275.506
L216.485 258.402
L216.634 233.287
L216.857 142.474
L217.08 88.6825
L217.229 100.687
L219.014 330.172
L219.163 331.929
L219.238 331.922
L219.461 331.176
L220.13 327.771
L220.949 322.318
L222.139 312.599
L223.776 297.488
L224.297 290.614
L224.669 282.131
L224.892 272.322
L225.115 250.739
L225.264 217.193
L225.636 88.5172
L225.785 98.7132
L227.645 331.325
L227.794 331.944
L228.017 331.246
L228.612 328.294
L229.43 322.988
L230.546 314.023
L232.258 298.463
L232.778 292.06
L233.15 284.773
L233.448 273.305
L233.671 253.169
L233.82 222.342
L234.192 88.7465
L234.266 90.4106
L234.49 116.594
L235.457 250.223
L236.201 331.076
L236.35 331.957
L236.498 331.6
L237.019 329.197
L237.763 324.681
L238.73 317.3
L240.516 301.59
L241.26 293.372
L241.632 286.97
L241.93 277.837
L242.153 263.618
L242.376 227.071
L242.748 89.4454
L242.822 89.5096
L243.046 114.118
L244.087 256.97
L244.757 330.764
L244.906 331.957
L245.054 331.658
L245.501 329.668
L246.245 325.295
L247.212 318.049
L248.923 303.142
L249.742 294.579
L250.188 287.335
L250.486 278.542
L250.709 265.128
L250.932 231.411
L251.155 138.475
L251.378 88.8741
L251.527 101.632
L253.313 330.378
L253.462 331.942
L253.536 331.909
L253.834 330.818
L254.503 327.286
L255.322 321.703
L256.586 311.241
L258.074 297.404
L258.595 290.485
L258.893 284.117
L259.19 271.85
L259.414 249.553
L259.562 214.672
L259.934 88.5483
L260.083 99.6089
L261.943 331.421
L262.092 331.935
L262.315 331.214
L262.91 328.25
L263.729 322.932
L264.845 313.957
L266.556 298.382
L267.077 291.944
L267.449 284.57
L267.746 272.859
L267.97 252.073
L268.118 220.025
L268.49 88.5874
L268.565 90.9048
L268.788 117.749
L269.755 251.115
L270.499 331.198
L270.648 331.952
L270.797 331.572
L271.318 329.156
L272.062 324.628
L273.029 317.236
L274.814 301.517
L275.484 294.265
L275.93 286.799
L276.228 277.501
L276.451 262.888
L276.674 224.943
L277.046 89.0597
L277.121 89.8939
L277.344 115.253
L278.386 257.878
L279.055 330.916
L279.204 331.958
L279.353 331.632
L279.874 329.244
L280.618 324.742
L281.585 317.374
L283.37 301.675
L284.114 293.495
L284.486 287.168
L284.784 278.221
L285.007 264.445
L285.23 229.458
L285.677 89.1312
L285.751 94.2548
L286.123 147.493
L286.867 247.245
L287.686 331.658
L287.76 331.951
L287.834 331.894
L288.132 330.783
L288.802 327.239
L289.62 321.644
L290.885 311.174
L292.373 297.32
L292.894 290.354
L293.191 283.902
L293.414 275.572
L293.638 258.554
L293.786 233.6
L294.01 143.162
L294.233 88.6567
L294.382 100.528
L296.167 330.135
L296.316 331.926
L296.39 331.924
L296.614 331.181
L297.283 327.779
L298.102 322.328
L299.292 312.61
L300.929 297.503
L301.45 290.636
L301.822 282.173
L302.045 272.402
L302.268 250.938
L302.417 217.615
L302.789 88.5201
L302.938 98.5624
L304.872 331.882
L304.946 331.946
L305.17 331.251
L305.765 328.301
L306.583 322.997
L307.699 314.034
L309.41 298.477
L309.931 292.08
L310.303 284.808
L310.601 273.38
L310.824 253.352
L310.973 222.73
L311.345 88.7834
L311.419 90.3308
L311.642 116.398
L312.61 250.07
L313.354 331.054
L313.502 331.957
L313.651 331.605
L314.172 329.203
L314.916 324.69
L315.883 317.311
L317.669 301.602
L318.413 293.39
L318.785 286.999
L319.082 277.894
L319.306 263.741
L319.529 227.427
L319.975 89.4494
L320.198 113.925
L321.24 256.815
L321.91 330.737
L322.058 331.956
L322.207 331.663
L322.654 329.675
L323.398 325.304
L324.365 318.06
L326.076 303.154
L326.894 294.595
L327.341 287.363
L327.638 278.596
L327.862 265.242
L328.085 231.737
L328.308 139.156
L328.531 88.8365
L328.68 101.469
L330.466 330.344
L330.614 331.94
L330.689 331.911
L330.912 331.149
L331.582 327.734
L332.4 322.271
L333.59 312.544
L335.227 297.419
L335.748 290.507
L336.046 284.153
L336.343 271.932
L336.566 249.759
L336.715 215.11
L337.087 88.5374
L337.236 99.454
L339.096 331.405
L339.245 331.937
L339.468 331.219
L340.063 328.258
L340.882 322.941
L341.998 313.969
L343.709 298.396
L344.23 291.964
L344.602 284.605
L344.899 272.936
L345.122 252.264
L345.271 220.427
L345.643 88.6079
L345.718 90.8169
L345.941 117.551
L346.908 250.962
L347.652 331.178
L347.801 331.953
L347.95 331.577
L348.47 329.163
L349.214 324.637
L350.182 317.247
L351.967 301.529
L352.637 294.282
L353.083 286.828
L353.381 277.559
L353.604 263.015
L353.827 225.313
L354.199 89.1177
L354.274 89.8244
L354.497 115.058
L355.538 257.722
L356.208 330.891
L356.357 331.958
L356.506 331.636
L357.026 329.251
L357.77 324.751
L358.738 317.385
L360.523 301.688
L361.267 293.513
L361.639 287.197
L361.937 278.277
L362.16 264.563
L362.383 229.798
L362.83 89.0828
L362.904 94.1311
L363.276 147.286
L364.02 247.093
L364.838 331.648
L364.913 331.949
L364.987 331.896
L365.285 330.789
L365.954 327.247
L366.773 321.654
L368.038 311.185
L369.526 297.334
L370.046 290.377
L370.344 283.939
L370.567 275.637
L370.79 258.705
L370.939 233.912
L371.162 143.852
L371.386 88.6329
L371.534 100.369
L373.32 330.098
L373.469 331.924
L373.543 331.926
L373.766 331.187
L374.362 328.214
L375.18 322.885
L376.296 313.903
L378.007 298.315
L378.528 291.847
L378.9 284.398
L379.198 272.481
L379.421 251.135
L379.57 218.034
L379.942 88.5254
L380.016 91.3491
L380.239 118.711
L381.206 251.856
L381.95 331.289
L382.099 331.947
L382.322 331.256
L382.918 328.309
L383.736 323.007
L384.852 314.046
L386.563 298.491
L387.084 292.1
L387.456 284.842
L387.754 273.455
L387.977 253.534
L388.126 223.115
L388.498 88.8233
L388.572 90.2525
L388.795 116.201
L389.762 249.917
L390.506 331.031
L390.655 331.957
L390.804 331.609
L391.325 329.21
L392.069 324.698
L393.036 317.322
L394.822 301.615
L395.566 293.408
L395.938 287.028
L396.235 277.951
L396.458 263.863
L396.682 227.78
L397.128 89.3908
L397.351 113.732
L398.393 256.66
L399.062 330.708
L399.211 331.955
L399.36 331.667
L399.806 329.681
L400.55 325.312
L401.518 318.07
L403.229 303.166
L404.047 294.612
L404.494 287.392
L404.791 278.65
L405.014 265.356
L405.238 232.061
L405.461 139.838
L405.684 88.8009
L405.833 101.306
L407.618 330.31
L407.767 331.938
L407.842 331.913
L408.065 331.155
L408.734 327.742
L409.553 322.28
L410.743 312.555
L412.38 297.433
L412.901 290.529
L413.273 281.968
L413.496 272.013
L413.719 249.964
L413.868 215.545
L414.24 88.5287
L414.389 99.2998
L416.249 331.389
L416.398 331.938
L416.621 331.225
L417.216 328.265
L418.034 322.951
L419.15 313.98
L420.862 298.41
L421.382 291.984
L421.754 284.64
L422.052 273.013
L422.275 252.453
L422.424 220.828
L422.796 88.6311
L422.87 90.7304
L423.094 117.353
L424.061 250.81
L424.805 331.158
L424.954 331.954
L425.102 331.582
L425.623 329.17
L426.367 324.646
L427.334 317.258
L429.12 301.542
L429.492 314.123
L429.864 320.559
L430.236 323.358
L430.534 324.113
L430.757 324.194
L430.98 324.014
L431.352 323.358
L432.022 321.627
L435.295 312.546
L436.634 309.672
L437.825 307.625
L438.718 306.488
L439.387 305.949
L439.908 305.775
L440.354 305.838
L440.801 306.121
L441.322 306.74
L441.991 307.923
L443.777 311.295
L444.372 311.907
L444.893 312.168
L445.414 312.21
L446.083 312.014
L446.976 311.469
L450.696 308.858
L451.589 308.629
L452.407 308.639
L453.3 308.876
L454.565 309.472
L456.276 310.243
L457.318 310.462
L458.434 310.453
L459.847 310.191
L463.121 309.496
L464.609 309.459
L466.469 309.659
L469.519 309.996
L471.602 309.959
L477.331 309.713
L485.515 309.817
L491.17 309.797
L499.949 309.8
L518.326 309.809
L518.326 309.809" style="fill:none;stroke:#0000ff;stroke-linecap:round;stroke-width:2;"/>
   </g>
   <g id="line2d_32">
    <path clip-path="url(#p3d386a08f4)" d="
M87.9216 332.462
L87.9216 66.0949" style="fill:none;stroke:#ff0000;stroke-linecap:round;stroke-width:1.75;"/>
   </g>
   <g id="line2d_33">
    <path clip-path="url(#p3d386a08f4)" d="
M96.924 332.462
L96.924 66.0949" style="fill:none;stroke:#ff0000;stroke-linecap:round;stroke-width:1.75;"/>
   </g>
   <g id="line2d_34">
    <path clip-path="url(#p3d386a08f4)" d="
M105.48 332.462
L105.48 66.0949" style="fill:none;stroke:#ff0000;stroke-linecap:round;stroke-width:1.75;"/>
   </g>
   <g id="line2d_35">
    <path clip-path="url(#p3d386a08f4)" d="
M114.036 332.462
L114.036 66.0949" style="fill:none;stroke:#ff0000;stroke-linecap:round;stroke-width:1.75;"/>
   </g>
   <g id="line2d_36">
    <path clip-path="url(#p3d386a08f4)" d="
M122.592 332.462
L122.592 66.0949" style="fill:none;stroke:#ff0000;stroke-linecap:round;stroke-width:1.75;"/>
   </g>
   <g id="line2d_37">
    <path clip-path="url(#p3d386a08f4)" d="
M131.222 332.462
L131.222 66.0949" style="fill:none;stroke:#ff0000;stroke-linecap:round;stroke-width:1.75;"/>
   </g>
   <g id="line2d_38">
    <path clip-path="url(#p3d386a08f4)" d="
M139.778 332.462
L139.778 66.0949" style="fill:none;stroke:#ff0000;stroke-linecap:round;stroke-width:1.75;"/>
   </g>
   <g id="line2d_39">
    <path clip-path="url(#p3d386a08f4)" d="
M148.334 332.462
L148.334 66.0949" style="fill:none;stroke:#ff0000;stroke-linecap:round;stroke-width:1.75;"/>
   </g>
   <g id="line2d_40">
    <path clip-path="url(#p3d386a08f4)" d="
M156.89 332.462
L156.89 66.0949" style="fill:none;stroke:#ff0000;stroke-linecap:round;stroke-width:1.75;"/>
   </g>
   <g id="line2d_41">
    <path clip-path="url(#p3d386a08f4)" d="
M165.521 332.462
L165.521 66.0949" style="fill:none;stroke:#ff0000;stroke-linecap:round;stroke-width:1.75;"/>
   </g>
   <g id="line2d_42">
    <path clip-path="url(#p3d386a08f4)" d="
M174.077 332.462
L174.077 66.0949" style="fill:none;stroke:#ff0000;stroke-linecap:round;stroke-width:1.75;"/>
   </g>
   <g id="line2d_43">
    <path clip-path="url(#p3d386a08f4)" d="
M182.633 332.462
L182.633 66.0949" style="fill:none;stroke:#ff0000;stroke-linecap:round;stroke-width:1.75;"/>
   </g>
   <g id="line2d_44">
    <path clip-path="url(#p3d386a08f4)" d="
M191.189 332.462
L191.189 66.0949" style="fill:none;stroke:#ff0000;stroke-linecap:round;stroke-width:1.75;"/>
   </g>
   <g id="line2d_45">
    <path clip-path="url(#p3d386a08f4)" d="
M199.745 332.462
L199.745 66.0949" style="fill:none;stroke:#ff0000;stroke-linecap:round;stroke-width:1.75;"/>
   </g>
   <g id="line2d_46">
    <path clip-path="url(#p3d386a08f4)" d="
M208.375 332.462
L208.375 66.0949" style="fill:none;stroke:#ff0000;stroke-linecap:round;stroke-width:1.75;"/>
   </g>
   <g id="line2d_47">
    <path clip-path="url(#p3d386a08f4)" d="
M216.931 332.462
L216.931 66.0949" style="fill:none;stroke:#ff0000;stroke-linecap:round;stroke-width:1.75;"/>
   </g>
   <g id="line2d_48">
    <path clip-path="url(#p3d386a08f4)" d="
M225.487 332.462
L225.487 66.0949" style="fill:none;stroke:#ff0000;stroke-linecap:round;stroke-width:1.75;"/>
   </g>
   <g id="line2d_49">
    <path clip-path="url(#p3d386a08f4)" d="
M234.043 332.462
L234.043 66.0949" style="fill:none;stroke:#ff0000;stroke-linecap:round;stroke-width:1.75;"/>
   </g>
   <g id="line2d_50">
    <path clip-path="url(#p3d386a08f4)" d="
M242.674 332.462
L242.674 66.0949" style="fill:none;stroke:#ff0000;stroke-linecap:round;stroke-width:1.75;"/>
   </g>
   <g id="line2d_51">
    <path clip-path="url(#p3d386a08f4)" d="
M251.23 332.462
L251.23 66.0949" style="fill:none;stroke:#ff0000;stroke-linecap:round;stroke-width:1.75;"/>
   </g>
   <g id="line2d_52">
    <path clip-path="url(#p3d386a08f4)" d="
M259.786 332.462
L259.786 66.0949" style="fill:none;stroke:#ff0000;stroke-linecap:round;stroke-width:1.75;"/>
   </g>
   <g id="line2d_53">
    <path clip-path="url(#p3d386a08f4)" d="
M268.342 332.462
L268.342 66.0949" style="fill:none;stroke:#ff0000;stroke-linecap:round;stroke-width:1.75;"/>
   </g>
   <g id="line2d_54">
    <path clip-path="url(#p3d386a08f4)" d="
M276.898 332.462
L276.898 66.0949" style="fill:none;stroke:#ff0000;stroke-linecap:round;stroke-width:1.75;"/>
   </g>
   <g id="line2d_55">
    <path clip-path="url(#p3d386a08f4)" d="
M285.528 332.462
L285.528 66.0949" style="fill:none;stroke:#ff0000;stroke-linecap:round;stroke-width:1.75;"/>
   </g>
   <g id="line2d_56">
    <path clip-path="url(#p3d386a08f4)" d="
M294.084 332.462
L294.084 66.0949" style="fill:none;stroke:#ff0000;stroke-linecap:round;stroke-width:1.75;"/>
   </g>
   <g id="line2d_57">
    <path clip-path="url(#p3d386a08f4)" d="
M302.64 332.462
L302.64 66.0949" style="fill:none;stroke:#ff0000;stroke-linecap:round;stroke-width:1.75;"/>
   </g>
   <g id="line2d_58">
    <path clip-path="url(#p3d386a08f4)" d="
M311.196 332.462
L311.196 66.0949" style="fill:none;stroke:#ff0000;stroke-linecap:round;stroke-width:1.75;"/>
   </g>
   <g id="line2d_59">
    <path clip-path="url(#p3d386a08f4)" d="
M319.826 332.462
L319.826 66.0949" style="fill:none;stroke:#ff0000;stroke-linecap:round;stroke-width:1.75;"/>
   </g>
   <g id="line2d_60">
    <path clip-path="url(#p3d386a08f4)" d="
M328.382 332.462
L328.382 66.0949" style="fill:none;stroke:#ff0000;stroke-linecap:round;stroke-width:1.75;"/>
   </g>
   <g id="line2d_61">
    <path clip-path="url(#p3d386a08f4)" d="
M336.938 332.462
L336.938 66.0949" style="fill:none;stroke:#ff0000;stroke-linecap:round;stroke-width:1.75;"/>
   </g>
   <g id="line2d_62">
    <path clip-path="url(#p3d386a08f4)" d="
M345.494 332.462
L345.494 66.0949" style="fill:none;stroke:#ff0000;stroke-linecap:round;stroke-width:1.75;"/>
   </g>
   <g id="line2d_63">
    <path clip-path="url(#p3d386a08f4)" d="
M354.05 332.462
L354.05 66.0949" style="fill:none;stroke:#ff0000;stroke-linecap:round;stroke-width:1.75;"/>
   </g>
   <g id="line2d_64">
    <path clip-path="url(#p3d386a08f4)" d="
M362.681 332.462
L362.681 66.0949" style="fill:none;stroke:#ff0000;stroke-linecap:round;stroke-width:1.75;"/>
   </g>
   <g id="line2d_65">
    <path clip-path="url(#p3d386a08f4)" d="
M371.237 332.462
L371.237 66.0949" style="fill:none;stroke:#ff0000;stroke-linecap:round;stroke-width:1.75;"/>
   </g>
   <g id="line2d_66">
    <path clip-path="url(#p3d386a08f4)" d="
M379.793 332.462
L379.793 66.0949" style="fill:none;stroke:#ff0000;stroke-linecap:round;stroke-width:1.75;"/>
   </g>
   <g id="line2d_67">
    <path clip-path="url(#p3d386a08f4)" d="
M388.349 332.462
L388.349 66.0949" style="fill:none;stroke:#ff0000;stroke-linecap:round;stroke-width:1.75;"/>
   </g>
   <g id="line2d_68">
    <path clip-path="url(#p3d386a08f4)" d="
M396.979 332.462
L396.979 66.0949" style="fill:none;stroke:#ff0000;stroke-linecap:round;stroke-width:1.75;"/>
   </g>
   <g id="line2d_69">
    <path clip-path="url(#p3d386a08f4)" d="
M405.535 332.462
L405.535 66.0949" style="fill:none;stroke:#ff0000;stroke-linecap:round;stroke-width:1.75;"/>
   </g>
   <g id="line2d_70">
    <path clip-path="url(#p3d386a08f4)" d="
M414.091 332.462
L414.091 66.0949" style="fill:none;stroke:#ff0000;stroke-linecap:round;stroke-width:1.75;"/>
   </g>
   <g id="line2d_71">
    <path clip-path="url(#p3d386a08f4)" d="
M422.647 332.462
L422.647 66.0949" style="fill:none;stroke:#ff0000;stroke-linecap:round;stroke-width:1.75;"/>
   </g>
   <g id="patch_3">
    <path d="
M72 39.6
L518.4 39.6" style="fill:none;"/>
   </g>
   <g id="patch_4">
    <path d="
M518.4 356.4
L518.4 39.6" style="fill:none;"/>
   </g>
   <g id="patch_5">
    <path d="
M72 356.4
L518.4 356.4" style="fill:none;"/>
   </g>
   <g id="patch_6">
    <path d="
M72 356.4
L72 39.6" style="fill:none;"/>
   </g>
   <g id="legend_1">
    <g id="line2d_72">
     <path d="
M453.759 52.2578
L473.759 52.2578" style="fill:none;stroke:#0000ff;stroke-linecap:round;stroke-width:2;"/>
    </g>
    <g id="line2d_73"/>
    <g id="text_18">
     <!-- vm -->
     <g style="fill:#262626;" transform="translate(481.759375 55.7578125)scale(0.1 -0.1)">
      <use xlink:href="#ArialMT-76"/>
      <use x="50.0" xlink:href="#ArialMT-6d"/>
     </g>
    </g>
    <g id="line2d_74">
     <path d="
M453.759 66.4031
L473.759 66.4031" style="fill:none;stroke:#ff0000;stroke-linecap:round;stroke-width:1.75;"/>
    </g>
    <g id="line2d_75"/>
    <g id="text_19">
     <!-- spikes -->
     <defs>
      <path d="
M6.64062 0
L6.64062 71.5781
L15.4375 71.5781
L15.4375 30.7656
L36.2344 51.8594
L47.6094 51.8594
L27.7812 32.625
L49.6094 0
L38.7656 0
L21.625 26.5156
L15.4375 20.5625
L15.4375 0
z
" id="ArialMT-6b"/>
      <path d="
M6.64062 61.4688
L6.64062 71.5781
L15.4375 71.5781
L15.4375 61.4688
z

M6.64062 0
L6.64062 51.8594
L15.4375 51.8594
L15.4375 0
z
" id="ArialMT-69"/>
      <path d="
M6.59375 -19.875
L6.59375 51.8594
L14.5938 51.8594
L14.5938 45.125
Q17.4375 49.0781 21 51.0469
Q24.5625 53.0312 29.6406 53.0312
Q36.2812 53.0312 41.3594 49.6094
Q46.4375 46.1875 49.0156 39.9531
Q51.6094 33.7344 51.6094 26.3125
Q51.6094 18.3594 48.75 11.9844
Q45.9062 5.60938 40.4531 2.21875
Q35.0156 -1.17188 29 -1.17188
Q24.6094 -1.17188 21.1094 0.6875
Q17.625 2.54688 15.375 5.375
L15.375 -19.875
z

M14.5469 25.6406
Q14.5469 15.625 18.5938 10.8438
Q22.6562 6.0625 28.4219 6.0625
Q34.2812 6.0625 38.4531 11.0156
Q42.625 15.9688 42.625 26.375
Q42.625 36.2812 38.5469 41.2031
Q34.4688 46.1406 28.8125 46.1406
Q23.1875 46.1406 18.8594 40.8906
Q14.5469 35.6406 14.5469 25.6406" id="ArialMT-70"/>
      <path d="
M42.0938 16.7031
L51.1719 15.5781
Q49.0312 7.625 43.2188 3.21875
Q37.4062 -1.17188 28.375 -1.17188
Q17 -1.17188 10.3281 5.82812
Q3.65625 12.8438 3.65625 25.4844
Q3.65625 38.5781 10.3906 45.7969
Q17.1406 53.0312 27.875 53.0312
Q38.2812 53.0312 44.875 45.9531
Q51.4688 38.875 51.4688 26.0312
Q51.4688 25.25 51.4219 23.6875
L12.75 23.6875
Q13.2344 15.1406 17.5781 10.5938
Q21.9219 6.0625 28.4219 6.0625
Q33.25 6.0625 36.6719 8.59375
Q40.0938 11.1406 42.0938 16.7031
M13.2344 30.9062
L42.1875 30.9062
Q41.6094 37.4531 38.875 40.7188
Q34.6719 45.7969 27.9844 45.7969
Q21.9219 45.7969 17.7969 41.75
Q13.6719 37.7031 13.2344 30.9062" id="ArialMT-65"/>
     </defs>
     <g style="fill:#262626;" transform="translate(481.759375 69.903125)scale(0.1 -0.1)">
      <use xlink:href="#ArialMT-73"/>
      <use x="50.0" xlink:href="#ArialMT-70"/>
      <use x="105.615234375" xlink:href="#ArialMT-69"/>
      <use x="127.83203125" xlink:href="#ArialMT-6b"/>
      <use x="177.83203125" xlink:href="#ArialMT-65"/>
      <use x="233.447265625" xlink:href="#ArialMT-73"/>
     </g>
    </g>
   </g>
  </g>
 </g>
 <defs>
  <clipPath id="p3d386a08f4">
   <rect height="316.8" width="446.4" x="72.0" y="39.6"/>
  </clipPath>
 </defs>
</svg>
